<svg xmlns="http://www.w3.org/2000/svg" version="1.1" xmlns:xlink="http://www.w3.org/1999/xlink" width="512" height="512" x="0" y="0" viewBox="0 0 682.667 682.667" style="enable-background:new 0 0 512 512" xml:space="preserve" class=""><g><defs><clipPath id="a" clipPathUnits="userSpaceOnUse"><path d="M0 512h512V0H0Z" fill="#262424" opacity="1" data-original="#000000"></path></clipPath></defs><g clip-path="url(#a)" transform="matrix(1.33333 0 0 -1.33333 0 682.667)"><path d="M497 171.647H15v64.686h482z" style="stroke-width:30;stroke-linecap:butt;stroke-linejoin:miter;stroke-miterlimit:10;stroke-dasharray:none;stroke-opacity:1" fill="none" stroke="#262424" stroke-width="30" stroke-linecap="butt" stroke-linejoin="miter" stroke-miterlimit="10" stroke-dasharray="none" stroke-opacity="" data-original="#000000" opacity="1" class=""></path><path d="M0 0h-296.416c-22.725 0-42.675 15.119-48.819 36.998l-29.402 104.701H77.861L48.862 37.154C42.772 15.198 22.785 0 0 0Z" style="stroke-width:30;stroke-linecap:butt;stroke-linejoin:miter;stroke-miterlimit:10;stroke-dasharray:none;stroke-opacity:1" transform="translate(404.388 29.578)" fill="none" stroke="#262424" stroke-width="30" stroke-linecap="butt" stroke-linejoin="miter" stroke-miterlimit="10" stroke-dasharray="none" stroke-opacity="" data-original="#000000" opacity="1" class=""></path><path d="m0 0-20.965-49.821" style="stroke-width:30;stroke-linecap:butt;stroke-linejoin:miter;stroke-miterlimit:10;stroke-dasharray:none;stroke-opacity:1" transform="translate(121.631 29.82)" fill="none" stroke="#262424" stroke-width="30" stroke-linecap="butt" stroke-linejoin="miter" stroke-miterlimit="10" stroke-dasharray="none" stroke-opacity="" data-original="#000000" opacity="1" class=""></path><path d="m0 0 20.964-49.821" style="stroke-width:30;stroke-linecap:butt;stroke-linejoin:miter;stroke-miterlimit:10;stroke-dasharray:none;stroke-opacity:1" transform="translate(390.37 29.82)" fill="none" stroke="#262424" stroke-width="30" stroke-linecap="butt" stroke-linejoin="miter" stroke-miterlimit="10" stroke-dasharray="none" stroke-opacity="" data-original="#000000" opacity="1" class=""></path><path d="M0 0v216.016c0 24.66 19.991 44.651 44.651 44.651 19.915 0 37.423-13.189 42.917-32.332l3.008-10.476" style="stroke-width:30;stroke-linecap:butt;stroke-linejoin:miter;stroke-miterlimit:10;stroke-dasharray:none;stroke-opacity:1" transform="translate(41.601 236.333)" fill="none" stroke="#262424" stroke-width="30" stroke-linecap="butt" stroke-linejoin="miter" stroke-miterlimit="10" stroke-dasharray="none" stroke-opacity="" data-original="#000000" opacity="1" class=""></path><path d="m0 0-82.457-24.43-7.102 23.97c-6.746 22.77 6.244 46.697 29.014 53.443 22.77 6.746 46.697-6.243 53.443-29.013z" style="stroke-width:30;stroke-linecap:butt;stroke-linejoin:miter;stroke-miterlimit:10;stroke-dasharray:none;stroke-opacity:1" transform="translate(190.743 403.984)" fill="none" stroke="#262424" stroke-width="30" stroke-linecap="butt" stroke-linejoin="miter" stroke-miterlimit="10" stroke-dasharray="none" stroke-opacity="" data-original="#000000" opacity="1" class=""></path><path d="m0 0-29.069-8.666-8.666 29.07 29.069 8.665z" style="fill-opacity:1;fill-rule:nonzero;stroke:none" transform="translate(134.207 319.582)" fill="#262424" data-original="#000000" opacity="1"></path><path d="m0 0-29.069-8.666-8.666 29.07 29.069 8.665z" style="fill-opacity:1;fill-rule:nonzero;stroke:none" transform="translate(148.776 270.708)" fill="#262424" data-original="#000000" opacity="1"></path><path d="m0 0-29.069-8.666-8.665 29.069 29.068 8.666z" style="fill-opacity:1;fill-rule:nonzero;stroke:none" transform="translate(182.442 333.962)" fill="#262424" data-original="#000000" opacity="1"></path><path d="m0 0-29.069-8.666-8.666 29.07 29.069 8.665z" style="fill-opacity:1;fill-rule:nonzero;stroke:none" transform="translate(197.012 285.087)" fill="#262424" data-original="#000000" opacity="1"></path><path d="m0 0-29.069-8.666-8.666 29.07 29.069 8.665z" style="fill-opacity:1;fill-rule:nonzero;stroke:none" transform="translate(230.678 348.34)" fill="#262424" data-original="#000000" opacity="1"></path><path d="m0 0-29.069-8.666-8.666 29.069 29.069 8.666z" style="fill-opacity:1;fill-rule:nonzero;stroke:none" transform="translate(245.248 299.466)" fill="#262424" data-original="#000000" opacity="1"></path></g></g></svg>