<svg width="43" height="82" viewBox="0 0 43 82" fill="none" xmlns="http://www.w3.org/2000/svg">
<g clip-path="url(#clip0_115_1928)">
<path d="M0 0V82L21.5533 68.2768L43 82V0H0Z" fill="#DAD2BC"/>
<path d="M14.3912 63.9395V63.5559L15.8315 61.9792C16.0005 61.7946 16.1397 61.6341 16.2491 61.4977C16.3585 61.3599 16.4395 61.2306 16.492 61.1099C16.546 60.9877 16.573 60.8599 16.573 60.7264C16.573 60.573 16.536 60.4402 16.4622 60.3279C16.3897 60.2157 16.2903 60.1291 16.1639 60.068C16.0375 60.0069 15.8954 59.9764 15.7377 59.9764C15.5701 59.9764 15.4238 60.0112 15.2988 60.0808C15.1752 60.149 15.0794 60.2449 15.0112 60.3684C14.9444 60.492 14.911 60.6369 14.911 60.8031H14.4082C14.4082 60.5474 14.4672 60.323 14.585 60.1298C14.7029 59.9366 14.8635 59.786 15.0666 59.6781C15.2711 59.5701 15.5005 59.5162 15.7548 59.5162C16.0105 59.5162 16.237 59.5701 16.4345 59.6781C16.6319 59.786 16.7868 59.9316 16.899 60.1149C17.0112 60.2981 17.0673 60.502 17.0673 60.7264C17.0673 60.8869 17.0382 61.0439 16.9799 61.1973C16.9231 61.3493 16.8237 61.519 16.6816 61.7065C16.541 61.8926 16.3457 62.1199 16.0957 62.3883L15.1156 63.4366V63.4707H17.144V63.9395H14.3912ZM19.4473 63.9991C19.1262 63.9991 18.8528 63.9118 18.627 63.737C18.4011 63.5609 18.2285 63.3059 18.1092 62.9721C17.9899 62.6369 17.9302 62.2321 17.9302 61.7576C17.9302 61.286 17.9899 60.8833 18.1092 60.5495C18.2299 60.2143 18.4032 59.9586 18.6291 59.7825C18.8564 59.6049 19.1291 59.5162 19.4473 59.5162C19.7654 59.5162 20.0375 59.6049 20.2633 59.7825C20.4906 59.9586 20.6639 60.2143 20.7832 60.5495C20.9039 60.8833 20.9643 61.286 20.9643 61.7576C20.9643 62.2321 20.9047 62.6369 20.7853 62.9721C20.666 63.3059 20.4934 63.5609 20.2676 63.737C20.0417 63.9118 19.7683 63.9991 19.4473 63.9991ZM19.4473 63.5304C19.7654 63.5304 20.0126 63.377 20.1887 63.0701C20.3649 62.7633 20.4529 62.3258 20.4529 61.7576C20.4529 61.3798 20.4125 61.0581 20.3315 60.7924C20.252 60.5268 20.1369 60.3244 19.9863 60.1852C19.8372 60.046 19.6575 59.9764 19.4473 59.9764C19.1319 59.9764 18.8855 60.1319 18.7079 60.443C18.5304 60.7527 18.4416 61.1909 18.4416 61.7576C18.4416 62.1355 18.4814 62.4565 18.5609 62.7207C18.6404 62.9849 18.7548 63.1859 18.9039 63.3237C19.0545 63.4615 19.2356 63.5304 19.4473 63.5304ZM21.774 63.9395V63.5559L23.2143 61.9792C23.3833 61.7946 23.5225 61.6341 23.6319 61.4977C23.7413 61.3599 23.8223 61.2306 23.8748 61.1099C23.9288 60.9877 23.9558 60.8599 23.9558 60.7264C23.9558 60.573 23.9189 60.4402 23.845 60.3279C23.7725 60.2157 23.6731 60.1291 23.5467 60.068C23.4203 60.0069 23.2782 59.9764 23.1206 59.9764C22.9529 59.9764 22.8066 60.0112 22.6816 60.0808C22.5581 60.149 22.4622 60.2449 22.394 60.3684C22.3272 60.492 22.2939 60.6369 22.2939 60.8031H21.791C21.791 60.5474 21.85 60.323 21.9679 60.1298C22.0858 59.9366 22.2463 59.786 22.4494 59.6781C22.6539 59.5701 22.8833 59.5162 23.1376 59.5162C23.3933 59.5162 23.6199 59.5701 23.8173 59.6781C24.0147 59.786 24.1696 59.9316 24.2818 60.1149C24.394 60.2981 24.4501 60.502 24.4501 60.7264C24.4501 60.8869 24.421 61.0439 24.3627 61.1973C24.3059 61.3493 24.2065 61.519 24.0645 61.7065C23.9238 61.8926 23.7285 62.1199 23.4785 62.3883L22.4984 63.4366V63.4707H24.5268V63.9395H21.774ZM26.9409 59.5758V63.9395H26.4125V60.1298H26.3869L25.3216 60.8372V60.3002L26.4125 59.5758H26.9409Z" fill="#5A534B"/>
<path d="M7.78984 44.5678C7.77161 44.7515 7.70281 44.9264 7.59123 45.0727C7.47964 45.219 7.32973 45.3308 7.15845 45.3955C7.12975 45.3955 7.12975 45.4245 7.15845 45.4328C7.40206 45.4717 7.62571 45.5919 7.79368 45.7742C7.96164 45.9565 8.06422 46.1904 8.08503 46.4384C8.07557 46.6315 8.02037 46.8194 7.92406 46.9865C7.82775 47.1536 7.69315 47.2949 7.53154 47.3986C7.15329 47.5977 6.72661 47.6839 6.30157 47.6469H4.91989C4.89531 47.5815 4.89531 47.5094 4.91989 47.4441C4.99369 47.4441 5.29298 47.4193 5.32988 47.3489C5.36664 47.1819 5.38044 47.0106 5.37088 46.8399V44.4271C5.38065 44.2563 5.36685 44.085 5.32988 43.9181C5.30528 43.8436 5.00599 43.8188 4.91989 43.8188C4.89519 43.7549 4.89519 43.684 4.91989 43.6201C5.17819 43.6201 5.46108 43.6449 5.70298 43.6449C5.94487 43.6449 6.24007 43.6449 6.58856 43.6449C7.13795 43.6325 7.78984 43.8684 7.78984 44.5678ZM6.48606 45.3955C6.85506 45.3955 7.06825 45.0934 7.06825 44.692C7.06825 44.1333 6.78946 43.8643 6.35487 43.8643C6.24827 43.8643 6.08017 43.8643 6.05557 43.9305C6.02927 44.0667 6.02099 44.2059 6.03097 44.3444V45.3873L6.48606 45.3955ZM6.03097 46.9516C6.02305 47.0832 6.03974 47.2152 6.08017 47.3406C6.14987 47.4234 6.31387 47.4317 6.49016 47.4317C6.60112 47.4396 6.71242 47.4223 6.81592 47.3812C6.91942 47.34 7.01251 47.2761 7.08836 47.194C7.16421 47.1118 7.22092 47.0136 7.25433 46.9065C7.28774 46.7995 7.297 46.6862 7.28145 46.575C7.29706 46.4473 7.28385 46.3177 7.24278 46.1959C7.20172 46.0741 7.13388 45.9633 7.04435 45.8717C6.95481 45.7801 6.8459 45.7102 6.72579 45.6671C6.60567 45.6241 6.47746 45.6091 6.35077 45.6231H6.01457L6.03097 46.9516Z" fill="#5A534B"/>
<path d="M9.95417 47.2368C10.0814 47.2349 10.2069 47.2063 10.3227 47.1529C10.4384 47.0995 10.5419 47.0223 10.6266 46.9264C10.6512 46.9264 10.684 46.9802 10.684 47.0216C10.6817 47.0617 10.672 47.101 10.6553 47.1374C10.5464 47.3003 10.4008 47.4347 10.2305 47.5296C10.0601 47.6246 9.86987 47.6774 9.67538 47.6837C9.34917 47.6837 9.03632 47.5529 8.80565 47.3201C8.57499 47.0873 8.4454 46.7715 8.4454 46.4422C8.4415 46.0842 8.56795 45.7373 8.80073 45.4672C9.03351 45.1972 9.35643 45.0228 9.70818 44.9772C9.82584 44.9682 9.94409 44.983 10.056 45.0208C10.1679 45.0586 10.2712 45.1186 10.3598 45.1972C10.4484 45.2759 10.5205 45.3716 10.572 45.4788C10.6234 45.586 10.6531 45.7025 10.6594 45.8214C10.6594 45.9787 10.6143 46.0904 10.5118 46.0945C10.2125 46.1194 9.28178 46.1442 9.02759 46.1484C9.00684 46.2831 9.0153 46.4209 9.05237 46.552C9.08944 46.6832 9.15424 46.8047 9.24231 46.9082C9.33039 47.0116 9.43963 47.0946 9.56253 47.1513C9.68542 47.208 9.81904 47.2372 9.95417 47.2368ZM9.95417 45.8959C9.96927 45.896 9.98421 45.8929 9.99802 45.8867C10.0118 45.8805 10.0242 45.8715 10.0343 45.8601C10.0443 45.8488 10.0519 45.8354 10.0565 45.8209C10.061 45.8064 10.0625 45.791 10.0608 45.7759C10.0608 45.5607 9.94597 45.1841 9.63028 45.1841C9.19569 45.1841 9.06859 45.8173 9.07679 45.9207C9.11779 45.9373 9.83937 45.9083 9.94187 45.8959H9.95417Z" fill="#5A534B"/>
<path d="M12.7093 45.0517C12.7649 45.2825 12.7992 45.518 12.8118 45.7552C12.8118 45.7801 12.7667 45.7925 12.7298 45.7925C12.69 45.7917 12.6514 45.7787 12.6191 45.7552C12.5617 45.5069 12.3813 45.1676 12.0451 45.1676C11.9959 45.1616 11.9459 45.1664 11.8987 45.1817C11.8515 45.197 11.8081 45.2224 11.7715 45.2562C11.7349 45.29 11.706 45.3314 11.6867 45.3775C11.6674 45.4237 11.6582 45.4734 11.6597 45.5235C11.6597 45.8422 11.9672 45.9373 12.2296 46.078C12.492 46.2188 12.8979 46.4091 12.8979 46.8602C12.8979 47.4065 12.3977 47.6879 11.8442 47.6879C11.6069 47.6733 11.3719 47.6331 11.1431 47.5679C11.103 47.3312 11.0797 47.092 11.0734 46.8519C11.0734 46.8271 11.139 46.8147 11.1677 46.8147C11.1851 46.8143 11.2024 46.8174 11.2186 46.8238C11.2348 46.8302 11.2495 46.8397 11.262 46.8519C11.2849 47.0143 11.362 47.1639 11.4805 47.276C11.599 47.3881 11.7519 47.4561 11.9139 47.4686C11.9648 47.4703 12.0155 47.4615 12.0628 47.4425C12.1102 47.4235 12.1531 47.3948 12.1889 47.3583C12.2247 47.3218 12.2527 47.2781 12.2709 47.2302C12.2892 47.1822 12.2975 47.1309 12.2952 47.0796C12.2952 46.7402 11.9344 46.6657 11.6228 46.4629C11.3112 46.2601 11.0693 46.107 11.0693 45.7428C11.0693 45.2172 11.6064 44.9482 12.0656 44.9482C12.283 44.9616 12.4986 44.9963 12.7093 45.0517Z" fill="#5A534B"/>
<path d="M14.8782 45.0268C14.9028 45.0268 14.9151 45.064 14.9151 45.1013C14.9038 45.1769 14.866 45.246 14.8085 45.2958H14.1566V46.8394C14.1566 47.1622 14.2714 47.3195 14.5133 47.3195C14.6425 47.3077 14.7653 47.2573 14.8659 47.1746C14.884 47.1923 14.8955 47.2157 14.8987 47.2409C14.8961 47.2781 14.8833 47.3139 14.8618 47.3443C14.6999 47.5306 14.4745 47.6488 14.2304 47.6754C13.8942 47.6754 13.5334 47.5057 13.5334 46.9056V45.2958H13.1439C13.1193 45.2958 13.1152 45.2544 13.1152 45.2296C13.165 45.1558 13.2228 45.0877 13.2874 45.0268H13.5293V44.6957C13.6974 44.5343 13.9393 44.2818 14.0213 44.1742C14.0705 44.1411 14.1525 44.1411 14.1525 44.1742V45.0516L14.8782 45.0268Z" fill="#5A534B"/>
<path d="M18.1254 45.9374C18.0038 45.9407 17.884 45.9076 17.781 45.8422C17.7466 45.7987 17.7227 45.7477 17.7114 45.6932V45.6477C17.7893 45.6657 17.8692 45.674 17.9491 45.6725C18.3304 45.6725 18.6338 45.3497 18.6338 44.8159C18.6517 44.6972 18.6437 44.5761 18.6106 44.4609C18.5775 44.3457 18.5199 44.2391 18.4419 44.1485C18.3639 44.058 18.2673 43.9856 18.1589 43.9365C18.0504 43.8874 17.9327 43.8626 17.8138 43.864C17.7073 43.864 17.5392 43.864 17.5146 43.9302C17.4883 44.0665 17.48 44.2056 17.49 44.3441V46.8272C17.4794 46.9977 17.4918 47.169 17.5269 47.3362C17.5515 47.4066 17.8507 47.4397 17.9368 47.4397C17.9615 47.5035 17.9615 47.5744 17.9368 47.6383C17.695 47.6383 17.3957 47.6011 17.1538 47.6011C16.9119 47.6011 16.6208 47.6218 16.3789 47.6383C16.3542 47.5744 16.3542 47.5035 16.3789 47.4397C16.4527 47.4397 16.752 47.4066 16.7889 47.3362C16.8256 47.1692 16.8394 46.9979 16.8299 46.8272V44.4144C16.8396 44.2436 16.8258 44.0723 16.7889 43.9054C16.7643 43.8309 16.465 43.8061 16.3789 43.8061C16.3542 43.7422 16.3542 43.6713 16.3789 43.6074C16.6372 43.6074 16.9324 43.6323 17.1743 43.6323C17.4162 43.6323 17.7073 43.6323 18.0598 43.6323C18.7117 43.6323 19.3759 44.0089 19.3759 44.7C19.3825 44.8664 19.3545 45.0323 19.2937 45.1872C19.2328 45.342 19.1405 45.4822 19.0227 45.5988C18.9049 45.7153 18.7642 45.8057 18.6096 45.864C18.4551 45.9224 18.2901 45.9474 18.1254 45.9374Z" fill="#5A534B"/>
<path d="M21.7991 45.1099C21.8278 45.1838 21.843 45.2623 21.8442 45.3416C21.8442 45.561 21.6966 45.7555 21.5613 45.7555C21.426 45.7555 21.3932 45.6727 21.3235 45.6231C21.2953 45.5935 21.2616 45.5698 21.2243 45.5535C21.187 45.5372 21.1469 45.5285 21.1062 45.5279C20.8561 45.5279 20.6675 45.9128 20.6675 46.0493V46.877C20.6576 47.0476 20.67 47.2188 20.7044 47.3861C20.729 47.4564 21.1144 47.4895 21.1841 47.4895C21.2088 47.5534 21.2088 47.6243 21.1841 47.6882C20.9463 47.6882 20.6101 47.6509 20.3641 47.6509C20.1181 47.6509 19.8598 47.6716 19.6179 47.6882C19.5932 47.6243 19.5932 47.5534 19.6179 47.4895C19.6917 47.4895 19.9746 47.4564 19.9992 47.3861C20.0381 47.2194 20.0519 47.0478 20.0402 46.877V45.9376C20.0471 45.7983 20.0333 45.6588 19.9992 45.5237C19.95 45.4285 19.6548 45.4079 19.6138 45.4079C19.5728 45.4079 19.5892 45.2506 19.6138 45.2382C19.9654 45.2012 20.308 45.1032 20.6265 44.9485C20.6634 44.9485 20.7126 45.0271 20.7126 45.0519C20.7126 45.0768 20.6634 45.4989 20.6634 45.5734C20.6634 45.6479 20.688 45.6024 20.6921 45.5734C20.8274 45.3127 21.1021 44.9443 21.4219 44.9443C21.4927 44.9439 21.5629 44.9584 21.6278 44.9869C21.6928 45.0154 21.7511 45.0573 21.7991 45.1099Z" fill="#5A534B"/>
<path d="M24.7304 46.2855C24.7348 46.4658 24.7035 46.6452 24.6384 46.8132C24.5733 46.9812 24.4757 47.1344 24.3512 47.2638C24.2268 47.3933 24.078 47.4964 23.9136 47.5672C23.7493 47.638 23.5726 47.6749 23.3939 47.676C23.2176 47.6852 23.0415 47.6575 22.8764 47.5946C22.7113 47.5318 22.5608 47.4351 22.4345 47.3107C22.3082 47.1863 22.2088 47.0369 22.1424 46.8719C22.0761 46.7068 22.0443 46.5297 22.0491 46.3517C22.0414 46.1713 22.0697 45.9911 22.1325 45.822C22.1952 45.6529 22.291 45.4983 22.4142 45.3674C22.5374 45.2365 22.6855 45.1319 22.8495 45.06C23.0136 44.9881 23.1904 44.9502 23.3693 44.9487C23.5477 44.9377 23.7265 44.9644 23.8942 45.0271C24.0618 45.0899 24.2146 45.1873 24.3428 45.3132C24.4709 45.439 24.5716 45.5905 24.6384 45.758C24.7051 45.9254 24.7365 46.1051 24.7304 46.2855ZM22.7338 46.211C22.7338 46.7697 22.9593 47.4525 23.4513 47.4525C23.9433 47.4525 24.0458 46.898 24.0458 46.4262C24.0458 45.8633 23.808 45.1846 23.3201 45.1846C22.8322 45.1846 22.7338 45.7268 22.7338 46.211Z" fill="#5A534B"/>
<path d="M27.8426 46.2236C27.8305 46.6051 27.6757 46.9678 27.4095 47.2388C27.1433 47.5098 26.7854 47.669 26.4076 47.6845C26.2772 47.6789 26.1479 47.6581 26.0222 47.6224C26.0222 47.6224 26.0222 47.6473 26.0222 47.7094V48.1687C26.0115 48.3393 26.0239 48.5106 26.0591 48.6778C26.0837 48.7523 26.3666 48.7812 26.4363 48.7812C26.461 48.8451 26.461 48.916 26.4363 48.9799C26.1985 48.9799 25.9443 48.9468 25.7065 48.9468C25.4687 48.9468 25.2186 48.9468 24.9808 48.9799C24.9647 48.9493 24.9562 48.9152 24.9562 48.8805C24.9562 48.8459 24.9647 48.8118 24.9808 48.7812C25.0505 48.7812 25.3334 48.7523 25.358 48.6778C25.395 48.5108 25.4088 48.3395 25.399 48.1687V45.9381C25.4038 45.7989 25.39 45.6597 25.358 45.5242C25.3088 45.429 25.0136 45.4084 24.9726 45.4084C24.9316 45.4084 24.9439 45.2511 24.9726 45.2387C25.3245 45.2067 25.6684 45.1143 25.9894 44.9655C26.0086 44.973 26.0259 44.9847 26.04 44.9997C26.0542 45.0148 26.0649 45.0328 26.0714 45.0524C26.0457 45.126 26.0292 45.2024 26.0222 45.2801C26.0222 45.3049 26.0222 45.3173 26.0222 45.3132C26.2141 45.1307 26.4526 45.006 26.711 44.9531C26.8681 44.9611 27.0221 45.0003 27.1641 45.0685C27.3062 45.1368 27.4335 45.2327 27.5386 45.3508C27.6438 45.4689 27.7248 45.6068 27.777 45.7566C27.8291 45.9064 27.8514 46.0651 27.8426 46.2236ZM26.0017 45.5491V47.0431C26.0017 47.3203 26.2723 47.4569 26.4855 47.4569C26.834 47.4569 27.1579 47.0431 27.1579 46.4595C27.1579 45.785 26.8873 45.367 26.4158 45.367C26.1821 45.3504 26.0017 45.4911 26.0017 45.5491Z" fill="#5A534B"/>
<path d="M29.6956 47.2375C29.8228 47.2356 29.9483 47.2071 30.0641 47.1536C30.1798 47.1002 30.2833 47.0231 30.3679 46.9271C30.3925 46.9271 30.4253 46.9809 30.4253 47.0223C30.4231 47.0624 30.4134 47.1017 30.3966 47.1382C30.2878 47.301 30.1422 47.4354 29.9718 47.5304C29.8015 47.6253 29.6113 47.6781 29.4168 47.6845C29.2543 47.6878 29.0929 47.658 28.9421 47.5968C28.7914 47.5357 28.6545 47.4443 28.5396 47.3284C28.4247 47.2124 28.3342 47.0742 28.2736 46.922C28.213 46.7698 28.1834 46.6069 28.1868 46.4429C28.1819 46.0853 28.3074 45.7384 28.5395 45.4683C28.7716 45.1981 29.0941 45.0236 29.4455 44.9779C29.5666 44.9659 29.6889 44.9792 29.8048 45.0169C29.9206 45.0545 30.0276 45.1158 30.1191 45.1969C30.2105 45.278 30.2845 45.3771 30.3365 45.4882C30.3885 45.5993 30.4173 45.72 30.4212 45.8428C30.4212 46.0001 30.372 46.1118 30.2695 46.116C29.9702 46.1408 29.0396 46.1656 28.7854 46.1698C28.768 46.3016 28.7785 46.4357 28.816 46.5632C28.8536 46.6907 28.9175 46.8087 29.0034 46.9095C29.0894 47.0103 29.1955 47.0917 29.3147 47.1482C29.434 47.2047 29.5638 47.2352 29.6956 47.2375ZM29.6956 45.8966C29.7106 45.8967 29.7256 45.8936 29.7394 45.8874C29.7532 45.8813 29.7656 45.8722 29.7756 45.8609C29.7857 45.8495 29.7933 45.8361 29.7979 45.8216C29.8024 45.8071 29.8039 45.7918 29.8022 45.7766C29.8022 45.5614 29.6874 45.1848 29.3922 45.1848C28.9576 45.1848 28.8346 45.818 28.8387 45.9215C28.8592 45.938 29.5808 45.9091 29.6833 45.8966H29.6956Z" fill="#5A534B"/>
<path d="M32.91 45.1099C32.9424 45.1828 32.9592 45.2617 32.9592 45.3416C32.9592 45.561 32.8075 45.7555 32.6763 45.7555C32.5451 45.7555 32.5082 45.6727 32.4386 45.6231C32.4104 45.5935 32.3766 45.5698 32.3393 45.5535C32.302 45.5372 32.2619 45.5284 32.2213 45.5279C31.9671 45.5279 31.7826 45.9127 31.7826 46.0493V46.877C31.7726 47.0476 31.785 47.2188 31.8195 47.386C31.8441 47.4564 32.2295 47.4895 32.2992 47.4895C32.3239 47.5534 32.3239 47.6243 32.2992 47.6882C32.0573 47.6882 31.7211 47.6509 31.4792 47.6509C31.2373 47.6509 30.9749 47.6716 30.733 47.6882C30.7083 47.6243 30.7083 47.5534 30.733 47.4895C30.8068 47.4895 31.0856 47.4564 31.1102 47.386C31.1574 47.211 31.1741 47.0289 31.1594 46.848V45.9376C31.1669 45.7981 31.1517 45.6583 31.1143 45.5237C31.0692 45.4285 30.774 45.4079 30.733 45.4079C30.692 45.4079 30.7084 45.2506 30.733 45.2382C31.0844 45.2006 31.4269 45.1026 31.7457 44.9485C31.7826 44.9485 31.8318 45.0271 31.8318 45.0519C31.8318 45.0768 31.7826 45.4989 31.7826 45.5734C31.7826 45.6479 31.8072 45.6024 31.8113 45.5734C31.9466 45.3127 32.2213 44.9443 32.541 44.9443C32.6107 44.944 32.6795 44.9586 32.7431 44.9871C32.8068 45.0157 32.8636 45.0575 32.91 45.1099Z" fill="#5A534B"/>
<path d="M34.7874 45.0268C34.812 45.0268 34.8243 45.064 34.8243 45.1013C34.813 45.1769 34.7752 45.246 34.7177 45.2958H34.0699V46.8394C34.0699 47.1622 34.1806 47.3195 34.4225 47.3195C34.5519 47.3087 34.675 47.2582 34.7751 47.1746C34.7931 47.1923 34.8047 47.2157 34.8079 47.2409C34.8053 47.2781 34.7925 47.3139 34.771 47.3443C34.609 47.5306 34.3837 47.6488 34.1396 47.6754C33.8034 47.6754 33.4426 47.5057 33.4426 46.9056V45.2958H33.0531C33.0285 45.2958 33.0244 45.2544 33.0244 45.2296C33.0742 45.1558 33.132 45.0877 33.1966 45.0268H33.4426V44.6957C33.6107 44.5343 33.8526 44.2818 33.9346 44.1742C33.9838 44.1411 34.0699 44.1411 34.0699 44.1742V45.0516L34.7874 45.0268Z" fill="#5A534B"/>
<path d="M36.2144 44.9857C36.239 45.023 36.2144 45.1678 36.2144 45.1844C36.2144 45.2009 35.8906 45.2216 35.8906 45.3209C35.8859 45.34 35.8859 45.3599 35.8906 45.3789C36.0013 45.5941 36.5178 46.7984 36.5178 46.7984C36.5178 46.7984 36.8048 46.0824 37.0221 45.5568C37.0522 45.4917 37.0703 45.4216 37.0754 45.3499C37.0754 45.2175 36.8089 45.1678 36.6654 45.1678C36.6326 45.1678 36.6408 45.0064 36.6654 44.9692C36.8584 44.9953 37.0529 45.0092 37.2476 45.0106C37.4355 45.0081 37.6231 44.9943 37.8093 44.9692C37.834 45.033 37.834 45.1039 37.8093 45.1678C37.7478 45.1678 37.4567 45.2051 37.3788 45.3747C37.1984 45.7886 36.7925 46.6908 36.4358 47.5226C36.2961 47.8778 36.1231 48.2187 35.9193 48.5407C35.849 48.65 35.7569 48.7432 35.6489 48.8145C35.5409 48.8857 35.4193 48.9334 35.292 48.9545C35.1075 48.9545 34.9517 48.8552 34.9517 48.6648C34.9516 48.6207 34.9611 48.5771 34.9795 48.537C34.9979 48.497 35.0248 48.4615 35.0583 48.4331C35.2193 48.4462 35.3809 48.4145 35.5254 48.3416C35.67 48.2686 35.792 48.1572 35.8783 48.0192C35.9773 47.8541 36.0597 47.6794 36.1243 47.4978C35.8332 46.8108 35.3371 45.7141 35.1567 45.3251C35.1175 45.2665 35.0642 45.2191 35.0018 45.1872C34.9394 45.1553 34.8699 45.1401 34.8 45.143C34.7815 45.0781 34.7815 45.0092 34.8 44.9443C34.9394 44.9443 35.2633 44.9857 35.5052 44.9857C35.7471 44.9857 36.0792 44.9981 36.2144 44.9857Z" fill="#5A534B"/>
<path d="M14.7104 49.617C14.7473 49.53 14.8703 49.4142 14.9318 49.4142C14.9624 49.413 14.9926 49.4217 15.0179 49.439L16.2479 52.6008C16.334 52.8036 16.3832 52.9443 16.4119 53.0147C16.4939 53.205 16.8219 53.2423 16.8506 53.2423C16.8704 53.3098 16.8704 53.3817 16.8506 53.4492C16.6087 53.4492 16.3832 53.4078 16.1167 53.4078C15.8502 53.4078 15.5632 53.4368 15.2967 53.4492C15.268 53.4202 15.268 53.2547 15.2967 53.2423C15.4188 53.2436 15.5391 53.2122 15.6452 53.1512C15.6574 53.1395 15.6669 53.1254 15.6733 53.1097C15.6797 53.094 15.6826 53.0771 15.6821 53.0602C15.5755 52.7017 15.4496 52.3494 15.3049 52.0049C15.3049 52.0049 15.3049 52.0049 15.268 52.0049C15.0753 52.0049 14.8252 52.0049 14.6735 52.0049C14.4275 52.0049 14.2881 52.0049 14.0503 52.0049C14.0383 52.0011 14.0254 52.0011 14.0134 52.0049C14.0134 52.0049 13.8494 52.3939 13.7674 52.6256C13.7149 52.7589 13.6778 52.8977 13.6567 53.0395C13.6567 53.1926 14.0421 53.2216 14.0913 53.2216C14.1087 53.2894 14.1087 53.3606 14.0913 53.4285C13.8658 53.4285 13.7428 53.3871 13.4804 53.3871C13.218 53.3871 13.0704 53.412 12.8367 53.4285C12.8135 53.3644 12.8135 53.294 12.8367 53.2299C12.9764 53.2196 13.1096 53.1662 13.218 53.0767C13.3192 52.9209 13.403 52.7544 13.4681 52.5801C13.4681 52.5801 14.53 50.0763 14.7104 49.617ZM14.1651 51.6862V51.711C14.3004 51.711 14.5341 51.711 14.6735 51.711C14.8129 51.711 14.981 51.711 15.1655 51.711V51.6821L14.6571 50.3784L14.1651 51.6862Z" fill="#5A534B"/>
<path d="M19.4952 53.5858C19.4952 54.2066 18.7368 54.7736 17.9086 54.7736C17.3674 54.7736 16.8877 54.5128 16.8877 54.0618C16.8877 53.8052 17.2485 53.561 17.4658 53.4534C17.3481 53.4078 17.2463 53.328 17.1734 53.2242C17.1005 53.1204 17.0595 52.9971 17.0558 52.8699C17.1952 52.698 17.3683 52.5571 17.5642 52.456C17.4126 52.3883 17.2827 52.2792 17.1893 52.141C17.0959 52.0028 17.0425 51.841 17.0353 51.6738C17.0542 51.4128 17.1748 51.1699 17.3708 50.9985C17.5668 50.827 17.8221 50.741 18.0808 50.7592C18.2906 50.7548 18.4981 50.8047 18.6835 50.9041C18.7491 50.9331 18.7286 50.9331 18.7655 50.9413L19.4624 50.8544C19.4911 50.8544 19.5239 50.8875 19.5239 50.9165C19.5022 51.0205 19.4526 51.1164 19.3804 51.1938C19.2329 51.1938 19.0976 51.1938 19.0197 51.1648H18.9828C19.0809 51.3069 19.1338 51.4758 19.1345 51.649C19.1095 51.9088 18.9858 52.1488 18.7893 52.3185C18.5929 52.4882 18.3389 52.5746 18.0808 52.5595C17.9711 52.5573 17.8622 52.5406 17.7569 52.5098C17.6749 52.5719 17.5765 52.6629 17.5765 52.7416C17.5765 52.8202 17.7077 52.9237 17.9004 52.9237C18.212 52.9237 18.4047 52.9237 18.6466 52.9237C18.8432 52.9128 19.0372 52.9737 19.193 53.0952C19.3489 53.2168 19.4562 53.391 19.4952 53.5858ZM17.6872 53.5031C17.6259 53.5367 17.573 53.584 17.5325 53.6414C17.492 53.6987 17.465 53.7647 17.4535 53.8341C17.4535 54.248 17.7528 54.4839 18.2202 54.4839C18.6876 54.4839 19.0402 54.1818 19.0402 53.9128C19.0402 53.6438 18.786 53.4989 18.3063 53.4989C18.1259 53.4824 17.7651 53.4906 17.6872 53.5031ZM17.6298 51.6118C17.6298 51.9635 17.7938 52.3608 18.13 52.3608C18.4662 52.3608 18.54 52.0173 18.54 51.7152C18.54 51.4131 18.4006 50.9579 18.0562 50.9579C17.7118 50.9579 17.6298 51.3179 17.6298 51.6118Z" fill="#5A534B"/>
<path d="M21.217 53.0315C21.3443 53.0296 21.4698 53.001 21.5855 52.9476C21.7013 52.8942 21.8048 52.817 21.8894 52.7211C21.914 52.7211 21.9468 52.7749 21.9468 52.8163C21.9446 52.8564 21.9348 52.8957 21.9181 52.9321C21.8092 53.0949 21.6637 53.2294 21.4933 53.3243C21.323 53.4193 21.1327 53.4721 20.9382 53.4784C20.7758 53.4818 20.6144 53.452 20.4636 53.3908C20.3129 53.3296 20.1759 53.2383 20.0611 53.1223C19.9462 53.0063 19.8557 52.8681 19.7951 52.716C19.7344 52.5638 19.7049 52.4008 19.7083 52.2369C19.7033 51.8793 19.8289 51.5324 20.061 51.2622C20.2931 50.9921 20.6156 50.8175 20.9669 50.7718C21.0879 50.7599 21.21 50.7732 21.3256 50.8109C21.4413 50.8486 21.548 50.9099 21.6391 50.991C21.7303 51.0722 21.8039 51.1714 21.8554 51.2825C21.9069 51.3936 21.9353 51.5142 21.9386 51.6368C21.9386 51.7941 21.8935 51.9058 21.791 51.9099C21.4917 51.9348 20.561 51.9596 20.3069 51.9637C20.2895 52.0956 20.2999 52.2296 20.3375 52.3571C20.3751 52.4846 20.439 52.6026 20.5249 52.7035C20.6109 52.8043 20.717 52.8856 20.8362 52.9422C20.9555 52.9987 21.0853 53.0291 21.217 53.0315ZM21.217 51.6906C21.2321 51.6907 21.2471 51.6876 21.2609 51.6814C21.2747 51.6752 21.287 51.6662 21.2971 51.6548C21.3072 51.6435 21.3148 51.6301 21.3193 51.6156C21.3239 51.6011 21.3254 51.5857 21.3236 51.5706C21.3236 51.3554 21.2088 50.9788 20.9136 50.9788C20.479 50.9788 20.352 51.612 20.3602 51.7154C20.3807 51.732 21.1022 51.703 21.2047 51.6906H21.217Z" fill="#5A534B"/>
<path d="M24.9686 52.1079V52.6418C24.9581 52.8123 24.9705 52.9836 25.0055 53.1508C25.0055 53.2211 25.3171 53.2542 25.3868 53.2542C25.4115 53.3181 25.4115 53.389 25.3868 53.4529C25.149 53.4529 24.8948 53.4157 24.657 53.4157C24.4192 53.4157 24.1978 53.4363 23.96 53.4529C23.9353 53.389 23.9353 53.3181 23.96 53.2542C24.0297 53.2542 24.2839 53.2211 24.3085 53.1508C24.3397 52.9831 24.3507 52.8121 24.3413 52.6418V52.0955C24.3413 51.4995 24.247 51.1726 23.8493 51.1726C23.7392 51.1831 23.6329 51.2187 23.5384 51.2768C23.444 51.3349 23.3638 51.4139 23.304 51.5078V52.6418C23.2941 52.8123 23.3065 52.9835 23.3409 53.1508C23.3655 53.2211 23.6279 53.2542 23.7017 53.2542C23.7264 53.3181 23.7264 53.389 23.7017 53.4529C23.4598 53.4529 23.2261 53.4157 22.9843 53.4157C22.7424 53.4157 22.5005 53.4363 22.2586 53.4529C22.2339 53.389 22.2339 53.3181 22.2586 53.2542C22.3324 53.2542 22.6153 53.2211 22.6358 53.1508C22.6784 52.9848 22.6936 52.8128 22.6809 52.6418V51.7313C22.6884 51.5918 22.6732 51.452 22.6358 51.3174C22.5907 51.2223 22.2955 51.2016 22.2545 51.2016C22.2135 51.2016 22.2299 51.0443 22.2545 51.0319C22.6059 50.9943 22.9484 50.8963 23.2671 50.7422C23.304 50.7422 23.3532 50.8125 23.3532 50.8456C23.3532 50.8788 23.304 51.1643 23.304 51.1891C23.304 51.214 23.304 51.2264 23.304 51.2264C23.304 51.2264 23.304 51.2264 23.3327 51.2016C23.5498 50.9654 23.8381 50.8083 24.1527 50.7546C24.8374 50.7505 24.9686 51.185 24.9686 52.1079Z" fill="#5A534B"/>
<path d="M27.2104 50.8207C27.235 50.8207 27.2473 50.858 27.2473 50.8952C27.2361 50.9709 27.1982 51.0399 27.1407 51.0897H26.4888V52.6334C26.4888 52.9562 26.6036 53.1134 26.8455 53.1134C26.9747 53.1016 27.0975 53.0512 27.1981 52.9686C27.2162 52.9863 27.2278 53.0096 27.2309 53.0348C27.2283 53.0721 27.2155 53.1079 27.194 53.1383C27.0321 53.3246 26.8068 53.4427 26.5626 53.4694C26.2264 53.4694 25.8656 53.2997 25.8656 52.6996V51.0897H25.4557C25.4311 51.0897 25.4229 51.0483 25.4229 51.0235C25.4752 50.9505 25.5343 50.8826 25.5991 50.8207H25.8451V50.4896C26.0132 50.3282 26.2551 50.0758 26.3371 49.9682C26.3863 49.9351 26.4683 49.9351 26.4683 49.9682V50.8456L27.2104 50.8207Z" fill="#5A534B"/>
<path d="M29.1497 50.8461C29.2033 51.0773 29.2376 51.3127 29.2522 51.5497C29.2522 51.5745 29.203 51.5869 29.1661 51.5869C29.1275 51.5866 29.0901 51.5735 29.0595 51.5497C28.998 51.3013 28.8176 50.962 28.4814 50.962C28.4322 50.956 28.3823 50.9608 28.335 50.9761C28.2878 50.9914 28.2444 51.0169 28.2078 51.0507C28.1712 51.0844 28.1423 51.1258 28.123 51.1719C28.1037 51.2181 28.0945 51.2679 28.0961 51.3179C28.0961 51.6366 28.4035 51.7318 28.6659 51.8725C28.9283 52.0132 29.3342 52.2035 29.3342 52.6546C29.3342 53.2009 28.834 53.4823 28.2847 53.4823C28.046 53.4681 27.8096 53.4279 27.5795 53.3623C27.5414 53.1254 27.5181 52.8862 27.5098 52.6464C27.5098 52.6215 27.5754 52.6091 27.6041 52.6091C27.6404 52.6081 27.6757 52.6215 27.7025 52.6464C27.7244 52.8084 27.8007 52.9579 27.9186 53.0701C28.0364 53.1822 28.1887 53.2503 28.3503 53.263C28.4015 53.2653 28.4526 53.2569 28.5004 53.2382C28.5483 53.2195 28.5917 53.1909 28.6279 53.1543C28.6642 53.1177 28.6925 53.0738 28.7111 53.0256C28.7296 52.9773 28.738 52.9257 28.7356 52.874C28.7356 52.5346 28.3748 52.4601 28.0633 52.2573C27.7517 52.0546 27.5098 51.8932 27.5098 51.529C27.5098 51.0034 28.051 50.7344 28.506 50.7344C28.7236 50.7511 28.9391 50.7885 29.1497 50.8461Z" fill="#5A534B"/>
<mask id="mask0_115_1928" style="mask-type:luminance" maskUnits="userSpaceOnUse" x="4" y="8" width="34" height="32">
<path d="M37.9692 8.39746H4.88281V39.5065H37.9692V8.39746Z" fill="white"/>
</mask>
<g mask="url(#mask0_115_1928)">
<path d="M37.9692 39.4233V38.4053H35.9192V36.8326H37.4321V35.798H35.9028V34.4116H37.8872V33.3936H34.759V39.4233H37.9692ZM29.7694 33.3936V37.619C29.7694 38.9474 30.536 39.5061 31.7127 39.5061C32.8894 39.5061 33.6643 38.9474 33.6643 37.619V33.3936H32.5286V37.6107C32.5286 38.1859 32.2703 38.488 31.7086 38.488C31.1469 38.488 30.8886 38.1859 30.8886 37.6107V33.3936H29.7694ZM26.2393 39.4233H27.539L29.0683 33.3936H27.9531L26.9076 37.7017L25.8293 33.3936H24.7141L26.2393 39.4233ZM24.1894 39.4233V38.4053H22.1394V36.8326H23.6523V35.798H22.1107V34.4116H24.0951V33.3936H20.9668V39.4233H24.1894ZM20.2862 39.4233V38.4053H18.4495V33.3936H17.2933V39.4233H20.2862ZM16.5963 39.4233V38.4053H14.7595V33.3936H13.6198V39.4233H16.5963ZM12.6891 39.4233V38.4053H10.6391V36.8326H12.152V35.798H10.6268V34.4116H12.6112V33.3936H9.48293V39.4233H12.6891ZM6.02669 34.3495H6.48178C7.01887 34.3495 7.27307 34.631 7.27307 35.0738C7.26775 35.1783 7.24103 35.2806 7.19459 35.3741C7.14816 35.4677 7.08301 35.5505 7.00327 35.6174C6.92353 35.6843 6.83091 35.7338 6.73128 35.7627C6.63165 35.7917 6.52715 35.7995 6.42438 35.7856H6.01439L6.02669 34.3495ZM6.02669 36.7375H6.43668C7.03117 36.7375 7.42887 37.023 7.42887 37.5983C7.43906 37.7213 7.42183 37.8451 7.37846 37.9606C7.33509 38.0761 7.26668 38.1803 7.17822 38.2656C7.08977 38.3509 6.98352 38.4152 6.86727 38.4537C6.75102 38.4922 6.62771 38.5039 6.50638 38.488H6.02669V36.7375ZM4.88281 39.4275H6.55968C7.78966 39.4275 8.56044 38.8853 8.56044 37.6893C8.56044 36.9402 8.31445 36.605 7.68306 36.2036C7.90512 36.0825 8.09082 35.9034 8.22066 35.6849C8.35051 35.4665 8.41972 35.2168 8.42105 34.962C8.42105 33.9274 7.71586 33.4101 6.49408 33.4101H4.88281V39.4275Z" fill="#5A534B"/>
<path d="M29.6994 16.7489L21.4258 8.39746L13.1562 16.7489V28.1049H18.4001C19.8555 28.1049 19.917 27.8856 19.917 26.7806V20.3825H17.8671V18.4623L18.687 18.3133C19.3545 18.1577 19.9792 17.8542 20.5161 17.4247C21.0529 16.9953 21.4883 16.4506 21.7907 15.8302H23.3323V26.7806C23.3323 27.8897 23.4635 28.1049 24.8287 28.1049H29.6994V16.7489Z" fill="#5A534B"/>
</g>
</g>
<defs>
<clipPath id="clip0_115_1928">
<rect width="43" height="82" fill="white"/>
</clipPath>
</defs>
</svg>
