<svg xmlns="http://www.w3.org/2000/svg" version="1.1" xmlns:xlink="http://www.w3.org/1999/xlink" width="512" height="512" x="0" y="0" viewBox="0 0 512 512" style="enable-background:new 0 0 512 512" xml:space="preserve" class=""><g><path d="M447 90.951v-65H0v395.098h65v65h447V90.951zm35 354.412L353.5 285.202l-90.637 112.969-65.061-81.093L95 445.21V120.951h387zM353.5 333.142l98.611 122.907H254.889zM216.427 456.049h-91.661l73.036-91.03 45.83 57.123zM30 391.049V55.951h387v35H65v300.098z" fill="#ffffff" opacity="1" data-original="#000000" class=""></path><path d="M256 291.049c26.191 0 47.5-21.309 47.5-47.5s-21.309-47.5-47.5-47.5-47.5 21.309-47.5 47.5 21.309 47.5 47.5 47.5zm0-65c9.649 0 17.5 7.851 17.5 17.5s-7.851 17.5-17.5 17.5-17.5-7.851-17.5-17.5 7.851-17.5 17.5-17.5z" fill="#ffffff" opacity="1" data-original="#000000" class=""></path></g></svg>