<svg xmlns="http://www.w3.org/2000/svg" version="1.1" xmlns:xlink="http://www.w3.org/1999/xlink" width="512" height="512" x="0" y="0" viewBox="0 0 682.667 682.667" style="enable-background:new 0 0 512 512" xml:space="preserve"><g><defs><clipPath id="a" clipPathUnits="userSpaceOnUse"><path d="M0 512h512V0H0Z" fill="#dad2bc" opacity="1" data-original="#000000"></path></clipPath></defs><g clip-path="url(#a)" transform="matrix(1.33333 0 0 -1.33333 0 682.667)"><path d="M0 0c-5.209 8.89-8.196 19.241-8.196 30.29 0 33.137 26.863 60 60 60s60-26.863 60-60c0-5.395-.712-10.623-2.047-15.596" style="stroke-width:30;stroke-linecap:butt;stroke-linejoin:miter;stroke-miterlimit:10;stroke-dasharray:none;stroke-opacity:1" transform="translate(234.196 180.71)" fill="none" stroke="#dad2bc" stroke-width="30" stroke-linecap="butt" stroke-linejoin="miter" stroke-miterlimit="10" stroke-dasharray="none" stroke-opacity="" data-original="#000000" opacity="1"></path><path d="M0 0c2.1 30.9 28.2 55.5 59.7 55.5 21.6 0 44.4.6 88.5 10.8 56.663 13.005 70.087-6.33 182.5-55.465v-115.649c-60 18.25-108.833 57.817-174.58 42.148C76.216-81.709-36.623-89.924-146.4 25.359c20.704 25.874 58.461 30.067 84.337 9.368C-16.569-1.667-15.603-4.229 10.111-4.165H134.7" style="stroke-width:30;stroke-linecap:butt;stroke-linejoin:miter;stroke-miterlimit:10;stroke-dasharray:none;stroke-opacity:1" transform="translate(166.3 125.165)" fill="none" stroke="#dad2bc" stroke-width="30" stroke-linecap="butt" stroke-linejoin="miter" stroke-miterlimit="10" stroke-dasharray="none" stroke-opacity="" data-original="#000000" opacity="1"></path><path d="M0 0c-2.101-30.9-28.2-55.5-59.7-55.5-21.6 0-44.4-.6-88.5-10.8-56.663-13.005-70.087 6.33-182.5 55.465v115.749c60-18.249 108.833-57.917 174.58-42.248 79.904 19.043 192.743 27.258 302.519-88.025-20.703-25.874-58.46-30.067-84.336-9.368C16.568 1.667 15.603 4.229-10.111 4.165H-134.7" style="stroke-width:30;stroke-linecap:butt;stroke-linejoin:miter;stroke-miterlimit:10;stroke-dasharray:none;stroke-opacity:1" transform="translate(345.7 386.835)" fill="none" stroke="#dad2bc" stroke-width="30" stroke-linecap="butt" stroke-linejoin="miter" stroke-miterlimit="10" stroke-dasharray="none" stroke-opacity="" data-original="#000000" opacity="1"></path></g></g></svg>