<svg xmlns="http://www.w3.org/2000/svg" version="1.1" xmlns:xlink="http://www.w3.org/1999/xlink" width="512" height="512" x="0" y="0" viewBox="0 0 512 512" style="enable-background:new 0 0 512 512" xml:space="preserve" class=""><g><path d="M0 113.293h113.293V0H0zm30.004-83.29h53.289v53.29h-53.29zM149.297 0v113.293H512V0zm332.7 83.293H179.3v-53.29h302.695zM0 260.3h113.293V147.009H0zm30.004-83.292h53.289v53.289h-53.29zM149.297 260.3H512V147.009H149.297zm30.004-83.292h302.695v53.289H179.301zM0 407.309h113.293V294.012H0zm30.004-83.293h53.289v53.289h-53.29zM149.297 407.309H512V294.012H149.297zm30.004-83.293h302.695v53.289H179.301zm0 0" fill="#685f55" opacity="1" data-original="#000000" class=""></path></g></svg>