<?xml version="1.0" encoding="UTF-8" standalone="no"?>
<!DOCTYPE svg PUBLIC "-//W3C//DTD SVG 1.1//EN" "http://www.w3.org/Graphics/SVG/1.1/DTD/svg11.dtd">
<svg xmlns="http://www.w3.org/2000/svg" version="1.1" viewBox="0.00 0.00 502.00 384.00">
<path fill="#F5F1ED" d="
  M 249.58 0.00
  L 252.75 0.00
  C 253.98 1.05 255.02 2.46 255.02 4.14
  Q 255.06 60.61 255.03 116.54
  A 0.52 0.52 0.0 0 0 255.55 117.06
  Q 262.90 117.08 269.95 119.04
  Q 270.29 119.13 270.39 118.79
  Q 272.14 112.52 273.99 105.92
  C 276.27 97.80 278.28 88.82 280.86 80.36
  C 282.31 75.57 283.04 70.47 284.68 65.76
  C 286.48 60.59 293.57 62.46 292.20 68.04
  C 291.62 70.39 290.80 72.63 290.28 74.99
  C 287.97 85.49 284.65 95.18 282.19 105.60
  Q 280.35 113.36 277.87 120.72
  A 0.59 0.58 15.4 0 0 278.31 121.48
  Q 285.59 123.06 291.92 127.01
  A 0.62 0.61 30.1 0 0 292.79 126.78
  Q 295.73 121.11 299.65 114.40
  Q 324.10 72.55 348.73 29.52
  Q 350.24 26.89 352.97 27.16
  Q 355.84 27.44 356.34 30.09
  Q 356.59 31.44 355.29 33.73
  Q 348.31 45.98 341.70 57.46
  Q 331.48 75.23 321.13 93.05
  Q 314.42 104.62 307.69 116.26
  Q 303.59 123.36 299.62 130.34
  Q 299.33 130.85 299.78 131.22
  C 303.44 134.27 307.66 136.32 310.81 140.09
  A 0.90 0.89 -43.0 0 0 312.15 140.13
  Q 317.30 134.60 323.45 128.53
  Q 335.26 116.89 350.35 101.78
  Q 353.55 98.57 356.14 101.40
  C 357.93 103.35 358.23 105.00 356.20 107.03
  Q 337.10 126.22 317.71 145.48
  Q 317.34 145.85 317.66 146.28
  L 326.62 158.01
  A 0.43 0.43 0.0 0 0 327.18 158.13
  Q 369.57 133.62 411.16 109.71
  C 415.98 106.94 420.50 104.01 425.53 101.52
  Q 427.27 100.65 428.75 101.77
  Q 432.19 104.39 429.75 107.47
  Q 428.70 108.79 428.22 109.04
  Q 422.46 112.01 416.40 115.52
  Q 408.42 120.14 400.48 124.76
  Q 369.59 142.70 342.86 158.07
  C 338.86 160.37 334.85 162.40 331.10 165.13
  A 0.67 0.66 -38.1 0 0 330.98 166.09
  Q 331.79 167.07 332.27 168.26
  Q 334.36 173.48 336.08 178.72
  A 1.31 1.30 71.8 0 0 337.71 179.55
  Q 346.79 176.69 355.05 174.64
  Q 363.67 172.50 372.71 169.87
  Q 382.06 167.15 390.34 165.45
  C 395.70 164.35 396.92 171.77 391.67 173.03
  Q 382.34 175.28 373.48 177.96
  C 369.48 179.17 365.27 179.79 361.36 180.99
  Q 350.54 184.30 340.46 186.47
  Q 338.53 186.88 338.78 188.63
  A 1.33 1.33 0.0 0 0 340.10 189.78
  L 502.00 189.76
  L 502.00 211.02
  L 438.11 211.00
  Q 437.85 211.00 437.85 211.27
  L 437.87 216.62
  A 0.31 0.31 0.0 0 0 438.18 216.92
  L 502.00 216.92
  L 502.00 220.65
  L 438.30 220.72
  Q 438.03 220.72 438.02 221.00
  L 437.89 229.05
  A 0.34 0.34 0.0 0 0 438.23 229.40
  L 502.00 229.39
  L 502.00 233.38
  L 438.57 233.32
  Q 437.94 233.32 437.94 233.95
  L 437.99 247.69
  A 0.48 0.47 -90.0 0 0 438.46 248.17
  L 502.00 248.16
  L 502.00 252.00
  L 438.50 251.99
  A 0.65 0.64 -90.0 0 0 437.86 252.64
  L 437.98 273.01
  Q 437.98 273.39 438.36 273.39
  L 502.00 273.36
  L 502.00 277.31
  L 438.61 277.28
  Q 437.95 277.28 437.95 277.94
  L 437.96 309.99
  A 0.53 0.53 0.0 0 0 438.49 310.52
  L 502.00 310.46
  L 502.00 314.12
  L 438.55 314.08
  A 0.62 0.61 90.0 0 0 437.94 314.70
  L 437.95 374.03
  A 0.74 0.74 0.0 0 1 437.21 374.77
  L 397.95 374.80
  A 0.85 0.85 0.0 0 1 397.10 373.95
  L 397.24 314.82
  A 0.68 0.68 0.0 0 0 396.56 314.14
  L 333.70 314.13
  Q 333.02 314.13 333.01 313.45
  L 332.99 311.37
  A 0.89 0.89 0.0 0 1 333.88 310.47
  L 396.51 310.44
  Q 397.21 310.44 397.21 309.74
  L 397.12 277.83
  Q 397.12 277.29 396.58 277.29
  L 333.85 277.30
  A 0.88 0.88 0.0 0 1 332.97 276.35
  L 333.13 273.97
  Q 333.17 273.37 333.78 273.37
  L 396.80 273.35
  A 0.41 0.40 0.0 0 0 397.21 272.95
  L 397.22 252.61
  Q 397.22 252.00 396.61 252.00
  L 333.75 252.01
  A 0.74 0.74 0.0 0 1 333.01 251.25
  L 333.08 249.14
  Q 333.11 248.14 334.11 248.14
  L 396.68 248.13
  A 0.55 0.55 0.0 0 0 397.23 247.57
  L 397.16 234.01
  Q 397.15 233.38 396.51 233.38
  L 333.82 233.39
  Q 333.01 233.39 333.02 232.57
  L 333.04 230.29
  Q 333.05 229.38 333.96 229.38
  L 397.02 229.36
  Q 397.22 229.36 397.22 229.17
  L 397.20 220.95
  Q 397.20 220.69 396.94 220.69
  L 333.94 220.71
  Q 332.92 220.71 332.99 219.69
  L 333.14 217.73
  Q 333.20 216.91 334.02 216.91
  L 396.28 216.93
  Q 397.25 216.93 397.24 215.97
  L 397.23 211.99
  Q 397.23 211.01 396.24 211.01
  L 333.55 211.01
  A 0.47 0.46 -90.0 0 1 333.09 210.54
  C 333.40 195.44 329.95 179.93 322.55 166.89
  Q 308.61 142.34 282.44 131.06
  Q 277.08 128.75 270.46 127.19
  Q 263.28 125.49 257.88 125.10
  Q 250.42 124.57 243.48 125.15
  Q 237.28 125.68 229.02 127.81
  Q 222.03 129.62 215.55 132.83
  Q 189.67 145.63 176.80 172.00
  C 174.54 176.64 173.16 181.56 171.75 186.49
  Q 168.56 197.56 169.20 210.03
  A 0.94 0.94 0.0 0 1 168.26 211.02
  L 105.22 211.00
  A 0.29 0.29 0.0 0 0 104.93 211.29
  L 104.98 216.70
  Q 104.99 216.95 105.24 216.95
  L 168.24 216.93
  Q 169.03 216.93 169.03 217.73
  Q 169.03 219.72 169.03 219.93
  Q 169.03 220.76 168.20 220.75
  Q 137.06 220.69 105.54 220.66
  A 0.55 0.55 0.0 0 0 104.99 221.21
  L 104.94 229.03
  Q 104.93 229.37 105.28 229.37
  L 168.07 229.38
  Q 169.02 229.38 169.02 230.32
  L 169.02 232.28
  Q 169.02 233.34 167.97 233.34
  L 105.32 233.39
  A 0.36 0.35 -0.0 0 0 104.96 233.74
  L 105.00 247.57
  A 0.57 0.57 0.0 0 0 105.57 248.14
  L 168.50 248.13
  Q 169.03 248.13 169.02 248.70
  L 169.02 251.37
  Q 169.01 252.01 168.38 252.01
  L 105.54 252.01
  A 0.58 0.58 0.0 0 0 104.96 252.59
  L 104.97 272.79
  A 0.57 0.57 0.0 0 0 105.54 273.36
  L 168.20 273.37
  Q 169.04 273.37 169.03 274.20
  L 169.02 276.50
  Q 169.02 277.28 168.25 277.28
  L 105.34 277.31
  A 0.35 0.35 0.0 0 0 104.99 277.66
  L 105.00 309.98
  A 0.48 0.48 0.0 0 0 105.48 310.46
  L 168.24 310.46
  Q 169.28 310.46 169.19 311.49
  L 169.06 312.97
  Q 168.96 314.15 167.78 314.15
  L 105.30 314.14
  Q 104.98 314.14 104.98 314.45
  L 105.03 374.14
  Q 105.03 374.80 104.36 374.80
  L 65.26 374.77
  A 1.01 1.01 0.0 0 1 64.25 373.76
  L 64.25 314.94
  A 0.81 0.81 0.0 0 0 63.44 314.13
  L 0.97 314.13
  Q 0.44 314.13 0.29 313.63
  L 0.00 312.62
  L 0.00 310.43
  L 63.74 310.50
  A 0.52 0.52 0.0 0 0 64.27 309.98
  L 64.24 277.76
  Q 64.24 277.27 63.75 277.27
  L 0.79 277.31
  Q 0.33 277.31 0.26 276.85
  Q 0.18 276.34 0.00 276.12
  L 0.00 275.01
  L 0.31 273.80
  Q 0.42 273.36 0.87 273.36
  L 63.77 273.36
  A 0.51 0.51 0.0 0 0 64.28 272.85
  L 64.28 252.64
  A 0.64 0.64 0.0 0 0 63.64 252.00
  L 0.74 252.01
  A 0.52 0.51 -90.0 0 1 0.23 251.49
  L 0.20 248.72
  Q 0.19 248.14 0.78 248.14
  L 63.95 248.14
  A 0.34 0.34 0.0 0 0 64.29 247.80
  L 64.28 233.79
  A 0.48 0.48 0.0 0 0 63.80 233.31
  L 0.37 233.41
  Q 0.21 233.41 0.21 233.25
  L 0.22 229.60
  Q 0.22 229.38 0.44 229.38
  L 63.71 229.40
  A 0.61 0.61 0.0 0 0 64.32 228.79
  L 64.28 221.18
  Q 64.28 220.71 63.81 220.71
  L 0.00 220.55
  L 0.00 218.53
  Q 0.21 218.11 0.28 217.43
  Q 0.32 216.96 0.79 216.96
  L 64.14 216.96
  Q 64.36 216.96 64.36 216.73
  L 64.29 211.32
  A 0.32 0.32 0.0 0 0 63.97 211.00
  L 0.95 211.01
  Q 0.36 211.01 0.27 210.43
  Q 0.19 209.92 0.00 209.62
  L 0.00 189.79
  L 162.15 189.78
  A 0.95 0.94 -80.4 0 0 163.04 189.14
  Q 163.29 188.40 163.22 187.69
  A 1.33 1.32 3.3 0 0 162.17 186.52
  C 157.88 185.64 153.53 184.83 149.34 183.51
  Q 143.38 181.63 138.05 180.36
  C 128.61 178.13 119.75 175.33 110.53 173.03
  Q 107.16 172.19 106.98 168.71
  Q 106.95 168.09 107.23 167.61
  Q 108.74 165.03 110.98 165.42
  C 121.77 167.27 131.50 170.80 142.04 173.34
  C 150.17 175.31 157.10 177.44 164.70 179.56
  A 0.98 0.97 -73.3 0 0 165.89 178.91
  Q 167.50 173.90 169.88 168.11
  Q 170.36 166.93 171.07 165.90
  Q 171.38 165.44 170.94 165.12
  C 167.46 162.56 163.78 160.83 160.11 158.70
  Q 115.35 132.80 73.40 108.67
  Q 71.14 107.38 71.43 104.42
  Q 71.47 103.96 71.72 103.53
  Q 73.61 100.22 76.37 101.53
  C 81.80 104.12 86.46 107.21 91.69 110.19
  C 119.55 126.07 147.12 142.06 174.79 158.08
  Q 175.21 158.32 175.52 157.93
  Q 179.15 153.29 182.40 148.71
  C 183.03 147.82 183.92 147.33 184.54 146.44
  A 0.61 0.61 0.0 0 0 184.47 145.66
  Q 165.68 126.92 146.63 107.90
  Q 145.63 106.91 144.84 105.73
  C 142.95 102.93 147.44 98.58 150.14 100.67
  Q 154.23 103.82 157.40 107.56
  C 158.58 108.97 160.09 110.09 161.40 111.39
  Q 174.47 124.33 187.41 137.60
  Q 188.47 138.69 189.59 140.00
  A 1.16 1.16 0.0 0 0 191.30 140.06
  C 193.01 138.32 194.61 136.56 196.76 135.27
  Q 199.66 133.52 202.27 131.19
  Q 202.68 130.82 202.41 130.34
  Q 198.90 124.01 195.07 117.45
  Q 171.28 76.72 146.15 32.82
  C 143.29 27.84 150.74 24.71 153.39 29.66
  Q 156.22 34.93 159.23 39.81
  C 162.13 44.51 164.41 49.16 167.31 53.86
  Q 168.38 55.59 169.46 57.52
  Q 176.89 70.79 183.26 81.29
  Q 185.36 84.74 186.78 87.45
  Q 188.44 90.61 190.24 93.66
  Q 199.81 109.86 209.31 126.75
  A 0.65 0.65 0.0 0 0 210.23 126.98
  Q 216.44 123.03 223.33 121.60
  A 0.94 0.94 0.0 0 0 224.03 120.38
  C 221.13 111.83 219.42 102.98 216.95 94.50
  Q 213.18 81.52 209.93 68.11
  Q 209.12 64.78 212.08 63.04
  Q 213.03 62.48 214.22 62.90
  Q 216.86 63.85 217.59 66.57
  L 231.54 118.73
  A 0.38 0.38 0.0 0 0 232.01 119.00
  Q 238.67 117.28 246.00 117.00
  A 1.02 1.02 0.0 0 0 246.98 115.98
  Q 246.85 62.48 246.98 4.75
  Q 246.99 1.09 249.58 0.00
  Z"
/>
<path fill="#F5F1ED" d="
  M 224.73 251.10
  C 229.46 255.74 236.71 258.89 243.19 260.56
  C 252.98 263.08 263.14 265.86 273.29 267.67
  C 282.23 269.27 290.94 271.87 299.72 274.36
  Q 314.43 278.55 322.49 290.76
  Q 327.90 298.95 329.42 309.70
  Q 331.23 322.51 327.52 336.08
  Q 325.20 344.55 319.27 353.07
  Q 314.41 360.05 305.72 366.01
  Q 290.82 376.24 274.16 380.14
  Q 254.44 384.75 234.83 383.28
  Q 219.41 382.12 207.29 379.08
  Q 200.27 377.32 191.77 374.55
  C 186.37 372.80 181.38 370.40 176.30 368.26
  Q 171.33 366.18 165.23 362.13
  A 0.77 0.77 0.0 0 1 164.91 361.28
  L 178.05 313.47
  Q 178.22 312.83 178.89 312.82
  L 187.45 312.73
  Q 188.06 312.72 188.12 313.32
  Q 189.72 328.22 195.11 338.36
  Q 205.84 358.51 227.29 366.49
  Q 238.69 370.72 254.07 368.61
  C 263.24 367.36 274.45 361.15 280.53 353.96
  Q 283.60 350.33 285.48 344.51
  C 288.05 336.56 286.80 328.38 281.94 321.51
  C 278.52 316.68 272.17 312.97 266.06 311.58
  Q 248.61 307.63 233.22 304.46
  Q 225.89 302.95 211.29 298.26
  Q 207.41 297.01 204.26 295.30
  C 201.17 293.62 197.89 292.27 195.00 290.28
  Q 181.60 281.04 175.81 266.21
  Q 171.46 255.08 173.42 241.49
  Q 174.72 232.45 180.00 224.70
  Q 185.67 216.37 193.13 211.24
  Q 204.33 203.55 216.02 199.62
  Q 246.58 189.35 277.92 195.54
  C 285.51 197.03 293.26 198.40 300.57 200.56
  Q 312.84 204.18 324.65 208.79
  A 0.78 0.77 -70.9 0 1 325.11 209.74
  C 323.62 214.66 321.86 219.42 320.67 224.38
  C 319.37 229.78 317.42 234.92 315.93 240.23
  Q 314.24 246.23 312.60 252.43
  Q 312.40 253.16 311.65 253.10
  L 305.61 252.62
  Q 304.85 252.56 304.69 251.82
  C 302.45 241.15 299.34 230.86 292.43 222.04
  Q 282.70 209.60 267.15 206.62
  Q 258.45 204.95 250.08 206.68
  Q 240.53 208.66 234.36 211.45
  Q 228.90 213.92 223.80 219.70
  C 218.28 225.95 216.50 234.44 219.06 242.46
  Q 220.48 246.93 224.73 251.10
  Z"
/>
</svg>
