<svg xmlns="http://www.w3.org/2000/svg" version="1.1" xmlns:xlink="http://www.w3.org/1999/xlink" width="512" height="512" x="0" y="0" viewBox="0 0 682.667 682.667" style="enable-background:new 0 0 512 512" xml:space="preserve"><g><defs><clipPath id="a" clipPathUnits="userSpaceOnUse"><path d="M0 512h512V0H0Z" fill="#dad2bc" opacity="1" data-original="#000000"></path></clipPath></defs><g clip-path="url(#a)" transform="matrix(1.33333 0 0 -1.33333 0 682.667)"><path d="m0 0-36.6 23.359-43.11-5.205-22.785 36.973-41.103 14.018-4.554 43.184-30.946 30.464 14.706 40.871-14.706 40.872L-148.152 255l4.555 43.184 41.103 14.018 22.784 36.972 43.11-5.204L0 367.329l36.6-23.359 43.11 5.204 22.785-36.972 41.103-14.018L148.152 255l30.946-30.464-14.706-40.872 14.706-40.871-30.946-30.465-4.555-43.184-41.103-14.018L79.71 18.154 36.6 23.359Z" style="stroke-width:30;stroke-linecap:butt;stroke-linejoin:miter;stroke-miterlimit:10;stroke-dasharray:none;stroke-opacity:1" transform="translate(256 126.796)" fill="none" stroke="#dad2bc" stroke-width="30" stroke-linecap="butt" stroke-linejoin="miter" stroke-miterlimit="10" stroke-dasharray="none" stroke-opacity="" data-original="#000000" opacity="1"></path><path d="M0 0c0-56.19-45.551-101.742-101.742-101.742S-203.484-56.19-203.484 0c0 56.191 45.551 101.743 101.742 101.743S0 56.191 0 0Z" style="stroke-width:30;stroke-linecap:butt;stroke-linejoin:miter;stroke-miterlimit:10;stroke-dasharray:none;stroke-opacity:1" transform="translate(357.742 310.46)" fill="none" stroke="#dad2bc" stroke-width="30" stroke-linecap="butt" stroke-linejoin="miter" stroke-miterlimit="10" stroke-dasharray="none" stroke-opacity="" data-original="#000000" opacity="1"></path><path d="m0 0 42.142-131.718-57.397 3.156-44.906-35.887-37.747 117.978" style="stroke-width:30;stroke-linecap:butt;stroke-linejoin:miter;stroke-miterlimit:10;stroke-dasharray:none;stroke-opacity:1" transform="translate(368.312 190.13)" fill="none" stroke="#dad2bc" stroke-width="30" stroke-linecap="butt" stroke-linejoin="miter" stroke-miterlimit="10" stroke-dasharray="none" stroke-opacity="" data-original="#000000" opacity="1"></path><path d="m0 0-42.142-131.718 57.397 3.156 44.906-35.887L97.908-46.471" style="stroke-width:30;stroke-linecap:butt;stroke-linejoin:miter;stroke-miterlimit:10;stroke-dasharray:none;stroke-opacity:1" transform="translate(143.689 190.13)" fill="none" stroke="#dad2bc" stroke-width="30" stroke-linecap="butt" stroke-linejoin="miter" stroke-miterlimit="10" stroke-dasharray="none" stroke-opacity="" data-original="#000000" opacity="1"></path></g></g></svg>