<svg xmlns="http://www.w3.org/2000/svg" version="1.1" xmlns:xlink="http://www.w3.org/1999/xlink" width="512" height="512" x="0" y="0" viewBox="0 0 512 512" style="enable-background:new 0 0 512 512" xml:space="preserve" class=""><g><path d="M120.5 256h30M180.75 256h30M301.25 316.25h30M361.5 316.25h30M301.25 376.5h30M361.5 376.5h30M301.25 436.75h30M361.5 436.75h30M120.5 316.25h30M180.75 316.25h30M120.5 376.5h30M180.75 376.5h30M135.5 436.75h60.25V497H135.5zM75.25 195.75h129.576M436.75 256H256" style="stroke-width:30;stroke-miterlimit:10;" fill="none" stroke="#ffffff" stroke-width="30" stroke-miterlimit="10" data-original="#000000" opacity="1" class=""></path><path d="M256 251.87V497H75.25V135.5h95.141M305.522 195.75H376.5L436.75 256v241H256" style="stroke-width:30;stroke-miterlimit:10;" fill="none" stroke="#ffffff" stroke-width="30" stroke-miterlimit="10" data-original="#000000" opacity="1" class=""></path><path d="M346.057 105.057C346.057 165.095 256 252.23 256 252.23s-90.057-87.134-90.057-147.173C165.943 55.32 206.263 15 256 15s90.057 40.32 90.057 90.057z" style="stroke-width:30;stroke-miterlimit:10;" fill="none" stroke="#ffffff" stroke-width="30" stroke-miterlimit="10" data-original="#000000" opacity="1" class=""></path><circle cx="256" cy="105.375" r="30.125" style="stroke-width:30;stroke-miterlimit:10;" fill="none" stroke="#ffffff" stroke-width="30" stroke-miterlimit="10" data-original="#000000" opacity="1" class=""></circle></g></svg>