<svg xmlns="http://www.w3.org/2000/svg" version="1.1" xmlns:xlink="http://www.w3.org/1999/xlink" width="512" height="512" x="0" y="0" viewBox="0 0 682.667 682.667" style="enable-background:new 0 0 512 512" xml:space="preserve" class=""><g><defs><clipPath id="a" clipPathUnits="userSpaceOnUse"><path d="M0 512h512V0H0Z" fill="#dad2bc" opacity="1" data-original="#000000"></path></clipPath></defs><g clip-path="url(#a)" transform="matrix(1.33333 0 0 -1.33333 0 682.667)"><path d="m0 0 7.187 7.187c9.749 9.749 25.554 9.749 35.303 0l39.213-39.213c9.749-9.749 9.749-25.554 0-35.303L62.097-86.935C-53.284-202.316-332.977 77.377-217.596 192.758l19.625 19.625c9.741 9.741 25.532 9.749 35.284.018l39.254-39.173c9.766-9.745 9.774-25.565.019-35.32l-7.247-7.247C-184.049 77.273-53.388-53.388 0 0Z" style="stroke-width:30;stroke-linecap:butt;stroke-linejoin:miter;stroke-miterlimit:10;stroke-dasharray:none;stroke-opacity:1" transform="translate(260.14 129.16)" fill="none" stroke="#dad2bc" stroke-width="30" stroke-linecap="butt" stroke-linejoin="miter" stroke-miterlimit="10" stroke-dasharray="none" stroke-opacity="" data-original="#000000" class="" opacity="1"></path><path d="M0 0c-69.312 0-125.5-56.188-125.5-125.5 0-20.228 4.793-39.334 13.293-56.256l-16.617-73.054 73.392 16.694C-38.715-246.361-19.901-251 0-251c69.312 0 125.5 56.188 125.5 125.5S69.312 0 0 0Z" style="stroke-width:30;stroke-linecap:butt;stroke-linejoin:miter;stroke-miterlimit:10;stroke-dasharray:none;stroke-opacity:1" transform="translate(371.64 496.833)" fill="none" stroke="#dad2bc" stroke-width="30" stroke-linecap="butt" stroke-linejoin="miter" stroke-miterlimit="10" stroke-dasharray="none" stroke-opacity="" data-original="#000000" class="" opacity="1"></path><path d="M0 0c0 17.932 15.155 32.325 33.355 31.07 15.359-1.06 27.801-13.502 28.861-28.861 1.071-15.537-9.26-28.854-23.463-32.419-4.43-1.112-7.607-4.984-7.607-9.551v-30.564" style="stroke-width:30;stroke-linecap:butt;stroke-linejoin:miter;stroke-miterlimit:10;stroke-dasharray:none;stroke-opacity:1" transform="translate(340.488 406.2)" fill="none" stroke="#dad2bc" stroke-width="30" stroke-linecap="butt" stroke-linejoin="miter" stroke-miterlimit="10" stroke-dasharray="none" stroke-opacity="" data-original="#000000" class="" opacity="1"></path><path d="M372.3 301.46h-1.333v1.333h1.333z" style="stroke-width:30;stroke-linecap:butt;stroke-linejoin:miter;stroke-miterlimit:10;stroke-dasharray:none;stroke-opacity:1" fill="none" stroke="#dad2bc" stroke-width="30" stroke-linecap="butt" stroke-linejoin="miter" stroke-miterlimit="10" stroke-dasharray="none" stroke-opacity="" data-original="#000000" class="" opacity="1"></path></g></g></svg>