<svg xmlns="http://www.w3.org/2000/svg" version="1.1" xmlns:xlink="http://www.w3.org/1999/xlink" width="512" height="512" x="0" y="0" viewBox="0 0 510 510" style="enable-background:new 0 0 512 512" xml:space="preserve" class=""><g><path d="M0 0v510h510V0zm480 30v330H30V30zM30 480v-90h450v90z" fill="#262424" opacity="1" data-original="#000000" class=""></path><path d="M397.5 180c28.948 0 52.5-23.551 52.5-52.5S426.448 75 397.5 75 345 98.551 345 127.5s23.552 52.5 52.5 52.5zm0-75c12.406 0 22.5 10.093 22.5 22.5S409.906 150 397.5 150 375 139.907 375 127.5s10.094-22.5 22.5-22.5zM255 180c28.948 0 52.5-23.551 52.5-52.5S283.948 75 255 75c-28.949 0-52.5 23.551-52.5 52.5S226.051 180 255 180zm0-75c12.406 0 22.5 10.093 22.5 22.5S267.406 150 255 150c-12.407 0-22.5-10.093-22.5-22.5S242.593 105 255 105zM112.5 180c28.949 0 52.5-23.551 52.5-52.5S141.449 75 112.5 75 60 98.551 60 127.5 83.551 180 112.5 180zm0-75c12.407 0 22.5 10.093 22.5 22.5S124.907 150 112.5 150 90 139.907 90 127.5s10.093-22.5 22.5-22.5zM112.5 315c28.949 0 52.5-23.551 52.5-52.5S141.449 210 112.5 210 60 233.551 60 262.5 83.551 315 112.5 315zm0-75c12.407 0 22.5 10.093 22.5 22.5S124.907 285 112.5 285 90 274.907 90 262.5s10.093-22.5 22.5-22.5zM397.5 315c28.948 0 52.5-23.551 52.5-52.5S426.448 210 397.5 210 345 233.551 345 262.5s23.552 52.5 52.5 52.5zm0-75c12.406 0 22.5 10.093 22.5 22.5S409.906 285 397.5 285 375 274.907 375 262.5s10.094-22.5 22.5-22.5zM255 315c28.948 0 52.5-23.551 52.5-52.5S283.948 210 255 210c-28.949 0-52.5 23.551-52.5 52.5S226.051 315 255 315zm0-75c12.406 0 22.5 10.093 22.5 22.5S267.406 285 255 285c-12.407 0-22.5-10.093-22.5-22.5S242.593 240 255 240zM420 420h30v30h-30zM360 420h30v30h-30zM300 420h30v30h-30zM240 420h30v30h-30zM180 420h30v30h-30zM120 420h30v30h-30zM60 420h30v30H60z" fill="#262424" opacity="1" data-original="#000000" class=""></path></g></svg>