<svg xmlns="http://www.w3.org/2000/svg" version="1.1" xmlns:xlink="http://www.w3.org/1999/xlink" width="512" height="512" x="0" y="0" viewBox="0 0 511 512" style="enable-background:new 0 0 512 512" xml:space="preserve" class=""><g><path d="m80.246 352.629 20.766-12.176a29.216 29.216 0 0 1 29.855.164l19.43 11.68a59.157 59.157 0 0 0 60.445.332l20.766-12.176a29.223 29.223 0 0 1 29.86.164l19.425 11.68a59.175 59.175 0 0 0 60.45.332l20.765-12.176a29.216 29.216 0 0 1 29.855.164l19.426 11.68a59.175 59.175 0 0 0 60.45.332l20.784-12.188-15.171-25.879-20.79 12.188a29.174 29.174 0 0 1-29.812-.164l-19.43-11.68a59.194 59.194 0 0 0-51.43-4.66V80.68c0-27.946 22.735-50.68 50.68-50.68h25.434V0h-25.438c-44.484 0-80.675 36.191-80.675 80.68v24.523H200.066V80.68c0-27.946 22.735-50.68 50.68-50.68h25.434V0h-25.434c-44.488 0-80.68 36.191-80.68 80.68v248.023a29.38 29.38 0 0 1-4.312-2.117l-19.426-11.68a59.201 59.201 0 0 0-60.488-.332L65.07 326.75a29.174 29.174 0 0 1-29.812-.164l-19.301-11.602L.5 340.695l19.3 11.602a59.168 59.168 0 0 0 60.446.332zm216.008-26.043-19.43-11.68a59.201 59.201 0 0 0-60.488-.332l-16.27 9.54V242.55h125.825v84.297a29.17 29.17 0 0 1-29.637-.262zm29.633-191.383v77.348h-125.82v-77.348zM80.246 428.246l20.766-12.176a29.216 29.216 0 0 1 29.855.164l19.43 11.68a59.168 59.168 0 0 0 60.445.332l20.766-12.176a29.223 29.223 0 0 1 29.86.164l19.425 11.68a59.166 59.166 0 0 0 60.45.332l20.765-12.176a29.216 29.216 0 0 1 29.855.164l19.426 11.68a59.16 59.16 0 0 0 30.504 8.469 59.16 59.16 0 0 0 29.945-8.137l20.785-12.187-15.175-25.88-20.786 12.188a29.174 29.174 0 0 1-29.812-.164l-19.43-11.68a59.192 59.192 0 0 0-60.488-.332l-20.766 12.176a29.174 29.174 0 0 1-29.812-.164l-19.426-11.68a59.2 59.2 0 0 0-60.492-.332l-20.766 12.176a29.174 29.174 0 0 1-29.812-.164l-19.426-11.68a59.2 59.2 0 0 0-60.492-.332l-20.766 12.176a29.174 29.174 0 0 1-29.812-.164L15.96 390.602.5 416.309l19.3 11.605a59.159 59.159 0 0 0 60.446.332zM456.563 477.984a29.174 29.174 0 0 1-29.813-.164l-19.43-11.68a59.192 59.192 0 0 0-60.488-.335l-20.766 12.18a29.174 29.174 0 0 1-29.812-.165l-19.43-11.68a59.201 59.201 0 0 0-60.488-.335l-20.766 12.18a29.183 29.183 0 0 1-29.812-.165l-19.43-11.68a59.201 59.201 0 0 0-60.488-.335l-20.766 12.18a29.183 29.183 0 0 1-29.812-.165L15.96 466.215.5 491.925l19.3 11.606a59.177 59.177 0 0 0 60.446.332l20.766-12.18a29.225 29.225 0 0 1 29.855.165l19.43 11.683a59.168 59.168 0 0 0 60.445.332l20.766-12.18a29.232 29.232 0 0 1 29.86.165l19.425 11.683a59.184 59.184 0 0 0 60.45.332l20.765-12.18a29.225 29.225 0 0 1 29.855.165l19.426 11.683A59.16 59.16 0 0 0 441.793 512a59.16 59.16 0 0 0 29.945-8.137l20.785-12.191-15.175-25.879zm0 0" fill="#262424" opacity="1" data-original="#000000" class=""></path></g></svg>