<svg xmlns="http://www.w3.org/2000/svg" version="1.1" xmlns:xlink="http://www.w3.org/1999/xlink" width="512" height="512" x="0" y="0" viewBox="0 0 512 512" style="enable-background:new 0 0 512 512" xml:space="preserve" class=""><g><path d="M256 0c-69.139 0-125.388 56.249-125.388 125.388S186.861 250.775 256 250.775s125.388-56.249 125.388-125.388S325.139 0 256 0zm0 219.429c-51.854 0-94.041-42.187-94.041-94.041S204.146 31.347 256 31.347s94.041 42.187 94.041 94.041-42.187 94.041-94.041 94.041zM256 282.122c-118.112 0-214.204 96.092-214.204 214.204V512h428.408v-15.673c0-118.113-96.092-214.205-214.204-214.205zM73.808 480.653C81.785 387.136 160.452 313.469 256 313.469s174.215 73.666 182.192 167.184H73.808z" fill="#262424" opacity="1" data-original="#000000"></path></g></svg>